<svg xmlns="http://www.w3.org/2000/svg" xmlns:xlink="http://www.w3.org/1999/xlink" id="Calque_1" x="0px" y="0px" viewBox="0 0 512 512" style="enable-background:new 0 0 512 512;" xml:space="preserve"><style type="text/css">	.st0{fill:#FFFFFF;}</style><g transform="translate(0.000000,512.000000) scale(0.100000,-0.100000)">	<path class="st0" d="M2513,4746l-28-24v-216c0-209,1-216,22-238c31-31,89-30,114,1c17,21,19,43,19,238c0,214,0,214-25,238  C2584,4777,2549,4777,2513,4746z"></path>	<path class="st0" d="M1667,4398c-24-19-38-64-28-90c14-34,293-306,316-308c60-6,95,23,95,79c0,31-14,48-148,183  c-134,134-152,148-183,148C1700,4410,1676,4404,1667,4398z"></path>	<path class="st0" d="M3208,4262c-134-135-148-152-148-183c0-56,35-85,95-79c26,2,312,286,317,315c10,52-26,94-81,95  C3360,4410,3342,4396,3208,4262z"></path>	<path class="st0" d="M1331,3683c-34-29-37-74-8-109l25-29h217h217l24,28c29,34,31,66,3,101l-20,26h-219  C1377,3700,1350,3698,1331,3683z"></path>	<path class="st0" d="M3342,3677c-40-42-24-105,32-127c37-14,374-13,415,1c55,19,70,88,28,127c-22,21-31,22-238,22  C3367,3700,3363,3700,3342,3677z"></path>	<path class="st0" d="M1947,3229c-58-14-128-53-172-97c-22-23-123-151-225-286l-185-245l-257-1H850v43c0,51-28,100-72,127  c-31,19-51,20-381,20H49l-24-25c-33-32-33-78,0-110l24-25h321h320v-780v-780H370H49l-24-25c-40-39-32-96,16-120c23-12,88-15,361-15  c366,0,377,2,422,63c18,25,21,46,24,158l4,129h57h58l6-59c6-75,48-154,101-193c47-34,76-35,112-5c41,35,37,78-10,126  c-60,61-59,98,2,191c53,81,75,104,110,115c31,9,88-12,112-42c35-44,27-90-31-179c-28-43-58-96-65-117c-39-109,8-252,100-308  c42-26,72-24,101,6c38,37,33,79-15,131c-58,63-56,96,14,200c64,95,94,114,157,95c51-16,82-61,76-112c-3-21-23-64-47-98  c-63-94-80-137-80-211c0-130,95-254,181-235c69,15,77,83,19,150c-56,65-55,100,8,196c57,87,69,98,115,106c47,7,95-19,114-64  c19-48,12-72-52-171c-66-102-82-163-65-245c13-64,56-128,109-164c45-31,67-29,103,7c25,26,29,36,24,63c-4,18-20,45-37,61  c-37,34-52,72-44,106c10,40,97,167,126,184c49,29,108,15,146-34c17-21,16-80-2-123c-21-50-19-100,4-121c10-9,63-37,117-61  c85-39,108-45,165-45c123,0,241,85,270,194c6,23,13,46,15,53c2,9,12,9,41,1c49-13,140-5,184,17c88,45,152,126,165,210l6,40l74-3  c68-4,81-1,140,28c89,44,135,108,158,220c5,23,9,25,70,26c119,2,226,77,262,186c26,78,17,182-21,243c-17,26-46,61-65,76  c-60,48-1552,971-1584,980c-56,16-120,10-173-16c-45-23-72-53-223-245c-94-121-185-231-203-244c-99-75-250-39-307,75  c-22,42-26,118-10,165c6,16,111,162,233,323c178,236,230,299,262,315c38,20,56,21,426,21h385l530-317c431-259,539-320,583-328  c29-5,134-10,232-10h179v-697c0-771-3-739,63-787c27-20,43-21,365-24c185-2,347,0,360,3c61,15,82,86,37,130l-24,25h-321h-320v780  v780h320h321l24,25c16,15,25,36,25,55s-9,40-25,55l-24,25h-348c-330,0-350-1-381-20c-48-29-72-75-72-138v-54l-198,4l-197,3  l-520,312c-332,198-540,317-574,327c-46,13-114,16-425,15C2152,3238,1968,3234,1947,3229z M3063,2064c414-257,767-482,785-500  c63-66,35-175-54-204c-61-20-70-16-399,195c-104,67-200,125-212,129c-26,8-78-15-87-39c-13-36-6-72,22-97c15-13,107-76,205-139  c189-120,210-141,210-209c0-47-17-76-56-100c-72-44-138-18-421,167c-155,101-174,107-216,65c-61-61-42-89,138-206  c157-101,182-128,182-193c0-67-72-129-139-120c-35,4-180,88-305,176c-64,44-106,52-143,26c-26-18-36-56-24-89c6-14,43-47,88-77  c42-29,87-63,99-76c49-53,35-144-28-183c-41-25-90-25-143-2l-40,18l4,76c2,61-2,86-19,125c-43,98-122,153-232,161c-66,5-68,5-78,37  c-15,46-84,122-134,147c-24,12-68,23-106,26l-66,4l-17,43c-39,93-129,155-239,163c-61,4-67,7-73,30c-12,47-65,112-117,141  c-130,74-272,39-364-89l-36-50h-99h-99v510v510l210-2l211-3l2-95c2-79,7-105,29-152c85-182,315-265,490-178c79,40,107,69,278,290  c94,120,176,221,183,223c6,3,23,6,35,6C2303,2530,2602,2350,3063,2064z"></path></g></svg>