<svg xmlns="http://www.w3.org/2000/svg" xmlns:xlink="http://www.w3.org/1999/xlink" id="Calque_1" x="0px" y="0px" viewBox="0 0 512 512" style="enable-background:new 0 0 512 512;" xml:space="preserve"><style type="text/css">	.st0{fill:#FFFFFF;}</style><g transform="translate(0.000000,512.000000) scale(0.100000,-0.100000)">	<path class="st0" d="M3107,5002c-14-15-17-42-17-154c0-118,2-137,18-151c23-21,52-22,78-3c17,13,19,29,22,131c2,64,1,127-2,140  C3193,5018,3139,5037,3107,5002z"></path>	<path class="st0" d="M2330,4680c-36-36-26-58,78-162c54-54,106-98,116-98c29,0,68,47,61,73c-10,34-188,207-214,207  C2360,4700,2341,4691,2330,4680z"></path>	<path class="st0" d="M3804,4607c-79-78-94-97-94-124c0-32,29-63,59-63c7,0,58,44,112,97c78,76,99,103,99,124c0,30-31,59-63,59  C3906,4700,3856,4658,3804,4607z"></path>	<path class="st0" d="M3065,4474c-354-55-594-398-521-745c19-86,45-137,119-229c114-143,137-222,137-475c0-208,12-271,65-352  c43-66,119-117,203-138c81-21,147-13,228,26c73,34,126,90,162,168c25,53,27,66,33,281c9,292,23,342,133,480  c113,140,141,226,133,400c-8,170-67,300-187,414c-79,74-133,107-232,140C3263,4469,3130,4484,3065,4474z M3304,4330  c164-56,292-201,327-369c15-71,7-214-15-266c-9-22-48-80-86-130c-80-104-124-194-141-289l-12-66h-84h-83v259c0,246-1,260-21,285  c-23,30-45,33-77,10c-22-15-22-17-22-285v-269h-85c-60,0-87,4-89,13c-2,6-11,44-20,82c-22,93-64,175-132,260  c-90,111-108,159-109,285c0,84,5,118,23,173C2766,4276,3052,4417,3304,4330z M3370,3010v-80h-225h-225v80v80h225h225V3010z   M3360,2805c0-13-34-72-54-93c-64-71-185-88-269-38c-48,28-97,87-97,118c0,17,16,18,210,18C3266,2810,3360,2808,3360,2805z"></path>	<path class="st0" d="M2007,3902c-23-25-21-58,3-82c18-18,33-20,150-20s132,2,150,20c25,25,26,62,2,83c-15,14-42,17-154,17  C2040,3920,2021,3918,2007,3902z"></path>	<path class="st0" d="M3980,3900c-26-26-25-46,5-75c23-24,30-25,147-25c140,0,168,10,168,60c0,54-17,60-166,60  C4013,3920,3998,3918,3980,3900z"></path>	<path class="st0" d="M4515,2705c-121-22-187-51-737-326c-296-148-540-269-542-269c-3,0-10,16-16,35c-18,53-111,148-172,176  c-53,24-54,24-543,30c-469,5-493,6-560,27c-99,32-234,52-343,52c-273,0-500-118-672-350c-26-36-118-186-203-334l-156-269l-78-1  c-140-2-180-35-303-251l-85-149v-76c0-83,20-134,73-187c35-34,1160-685,1216-703c84-27,217,15,270,84c35,47,161,266,174,305  c28,79,5,200-49,257c-19,20-19,21,33,108c83,139,192,226,319,255c24,6,137,11,250,11c439,0,642,37,884,157c49,25,189,103,310,173  c121,69,472,272,780,449c406,234,570,334,597,363c63,68,74,151,33,235c-51,101-177,185-307,203C4611,2722,4602,2721,4515,2705z   M4755,2571c22-10,58-33,79-51c68-60,84-119,44-164c-24-26-1480-872-1648-957c-230-116-413-149-840-149c-241,0-299-9-409-63  c-89-43-203-157-262-260c-29-52-49-76-59-74c-13,4-969,553-979,563c-5,5,235,423,306,533c218,336,531,435,962,306l85-25h460  c509,0,504,0,570-66c85-86,76-233-19-312c-61-49-84-52-464-52c-338,0-352-1-371-20c-26-26-25-46,5-75l24-25h348c376,0,424,5,501,54  c71,44,133,132,147,207l7,35l586,292c524,260,630,308,722,326C4596,2603,4713,2590,4755,2571z M1100,1034c311-179,579-339,595-355  c27-27,30-35,30-92c0-59-4-68-78-193c-42-73-89-140-104-149c-15-10-45-20-67-22c-49-5-36-12-467,237C355,838,264,892,245,918  c-14,19-20,43-20,77c0,44,9,66,79,188c89,153,114,177,186,177C531,1360,586,1330,1100,1034z"></path></g></svg>