<svg xmlns="http://www.w3.org/2000/svg" xmlns:xlink="http://www.w3.org/1999/xlink" id="Calque_1" x="0px" y="0px" viewBox="0 0 512 512" style="enable-background:new 0 0 512 512;" xml:space="preserve"><style type="text/css">	.st0{fill:#FFFFFF;}</style><g transform="translate(0.000000,512.000000) scale(0.100000,-0.100000)">	<path class="st0" d="M1520,5105c-538-74-987-516-1075-1059c-22-133-22-1192,0-1284c46-194,205-366,395-426c43-14,117-27,173-31  l97-7v84v85l-100,10c-82,8-112,16-174,47c-112,55-192,153-225,276c-9,33-11,195-9,630l4,585l26,96c43,158,101,278,197,403  c349,459,1003,570,1486,251c252-166,421-419,482-722c16-78,18-149,18-648c0-617,0-616-63-716c-80-126-195-190-366-204l-86-7v-79  c0-64,3-81,16-86c27-10,205,14,268,36c186,65,331,221,383,412c16,58,18,121,18,639c0,509-2,586-18,670  C2838,4749,2212,5200,1520,5105z"></path>	<path class="st0" d="M3483,5105c-151-41-260-144-305-288c-16-54-18-103-18-550c0-523,1-531,50-627c45-89,148-175,246-205  c27-9,104-18,171-22l121-6l4-183c3-177,4-183,27-208c18-19,35-26,60-26c34,0,51,15,246,210l210,210h195c107,0,223,5,258,10  c180,25,329,166,362,339c13,71,13,941,0,1011c-32,170-170,308-339,340c-32,6-288,10-645,9C3650,5119,3525,5116,3483,5105z   M4783,4930c66-25,121-80,147-148c19-49,20-79,20-510c0-510-2-525-64-599c-20-23-58-50-88-64c-51-22-65-24-313-27l-259-4l-147-145  l-147-144l-3,119c-6,174,1,169-227,174c-195,5-220,11-287,69c-21,19-49,56-61,84l-24,50v476c0,334,3,486,12,510  c16,47,57,103,95,129c72,49,70,49,700,50C4705,4950,4731,4949,4783,4930z"></path>	<path class="st0" d="M3582,4608l3-83l298-3l297-2v85v85h-300h-301L3582,4608z"></path>	<path class="st0" d="M4350,4605v-85h170h170v85v85h-170h-170V4605z"></path>	<path class="st0" d="M3580,4265v-85h555h555v85v85h-555h-555V4265z"></path>	<path class="st0" d="M3580,3925v-85h300h300v85v85h-300h-300V3925z"></path>	<path class="st0" d="M1611,4022c-712-336-735-348-749-382c-19-46-10-483,11-575c50-209,159-378,324-499l82-61l-2-131  c-2-126-3-132-30-167c-55-72-53-71-437-78c-328-5-348-6-409-28c-145-53-277-173-342-311C0,1667,0,1669,0,798V0h85h85v779  c0,487,4,798,10,832c30,159,149,289,304,334c40,12,93,15,221,13l169-3l383-535c211-294,392-541,403-549c26-17,76-17,97,1  c9,7,198,255,421,550l405,538h148c118,0,159-4,211-20c119-37,222-132,272-253c20-49,21-72,26-460l5-409l28-24c32-27,74-31,103-10  c10,8,111,180,224,383l205,368l244,3c200,2,242,0,238-11c-3-7-189-354-415-770L3462,0h97h97l416,768l416,767l83,7  c97,7,159,26,244,73c169,94,285,273,301,467c6,69,5,76-19,103l-25,30l-425,3c-480,3-517-1-647-64c-55-27-96-58-151-113  c-93-93-141-184-168-317c-16-83-29-111-142-315l-124-224l-6,240c-5,261-9,278-72,400c-41,77-155,191-232,232c-128,67-127,67-505,73  c-338,5-346,5-382,28c-67,42-82,79-86,218l-4,123l48,33c200,136,341,360,373,591c14,100,14,839,1,927c-20,123-90,300-125,314  c-9,3-31,6-48,5C2357,4369,2064,4236,1611,4022z M2366,4098c17-66,19-117,19-528v-455l-28-80c-42-118-81-181-171-271  c-91-90-171-140-286-176c-97-30-281-32-375-4c-113,34-214,95-295,176c-163,164-210,306-210,642c0,130,2,149,18,158  c34,22,1287,609,1298,610C2343,4170,2356,4137,2366,4098z M1710,2396c90,1,154,6,191,16l56,15l6-96c7-129,33-196,102-266  c62-62,131-92,234-101l69-7l-126-168l-127-169h-396h-395l-122,169l-121,170l57,6c195,23,312,166,312,380v82l63-15  C1554,2402,1621,2396,1710,2396z M4934,2023c-9-38-52-121-82-161c-39-51-129-110-200-132c-59-18-93-20-434-20h-369l6,23  c32,108,126,222,220,267c90,44,139,48,513,49l352,1L4934,2023z M1980,1447c0-10-263-352-270-352c-8,0-260,341-260,351  c0,2,119,4,265,4S1980,1449,1980,1447z"></path>	<path class="st0" d="M577,1217c-78-126-113-214-138-345c-16-84-5-277,20-363c22-77,81-209,110-246c19-23,21-40,21-144V0h90h90v123  c-1,138-8,163-68,255c-22,35-53,100-69,145c-25,73-28,96-27,212c0,113,3,140,26,207c14,42,49,115,77,163c29,47,50,89,47,94  s-35,27-70,49l-65,41L577,1217z"></path>	<path class="st0" d="M2712,1238l-63-40l22-37c104-169,129-244,136-393c8-173-23-284-120-428l-37-55V143V0h85h85v115  c0,107,2,117,26,152c37,54,92,176,110,245c40,156,35,334-15,489c-31,94-133,279-154,278C2780,1279,2747,1261,2712,1238z"></path></g></svg>